<svg width="58" height="53" viewBox="0 0 58 53" fill="none" xmlns="http://www.w3.org/2000/svg">
<path d="M14.6648 16.4405V18.3516H14.6063C13.2217 16.811 11.4276 16.0309 9.24349 16.0309C8.07343 16.0309 6.96187 16.2845 5.92831 16.7915C4.89476 17.2985 4.01721 17.981 3.27617 18.8391C2.53513 19.7166 1.9306 20.7697 1.50158 22.0178C1.07256 23.2658 0.858045 24.6114 0.858045 26.035C0.858045 27.8291 1.20906 29.4672 1.9501 30.9102C2.69114 32.3533 3.7247 33.5039 5.07027 34.3424C6.39634 35.181 7.91742 35.5905 9.61401 35.5905C11.7981 35.5905 13.5337 34.9079 14.7818 33.5429H14.8403V35.3175C14.8403 36.234 14.4113 36.9946 13.5922 37.5796C12.7537 38.1841 11.5836 38.4766 10.082 38.4766C9.16548 38.4766 8.17093 38.3401 7.09838 38.0281C6.02582 37.7161 5.14827 37.3456 4.44623 36.897L2.86665 42.5133C4.09522 43.1764 5.34328 43.6249 6.59135 43.8979C7.83941 44.1709 9.30199 44.3074 10.9791 44.3074C12.5782 44.3074 14.0017 44.1319 15.2498 43.7809C16.4979 43.4299 17.5314 42.9229 18.3505 42.2793C19.1695 41.6553 19.8325 40.8558 20.3591 39.9197C20.8661 38.9837 21.2366 37.9501 21.4706 36.858C21.6851 35.766 21.8022 34.5179 21.8022 33.1528V16.4405H14.6648ZM11.5251 29.3111C10.5306 29.3111 9.71151 28.9991 9.04848 28.3556C8.38544 27.7121 8.05393 26.8735 8.05393 25.84C8.05393 24.8259 8.38544 24.0069 9.04848 23.3438C9.71151 22.6808 10.5501 22.3493 11.5251 22.3493C12.5002 22.3493 13.3192 22.6808 13.9822 23.3438C14.6453 24.0069 14.9768 24.8259 14.9768 25.84C14.9768 26.8735 14.6453 27.7121 13.9822 28.3556C13.3192 28.9991 12.5002 29.3111 11.5251 29.3111ZM34.9629 16.0309C33.8903 16.0309 32.8763 16.304 31.9402 16.8305C31.0042 17.357 30.1852 18.1176 29.5026 19.1121H29.4441V16.4405H22.3067V36H29.4441V27.4585C29.4441 26.2885 29.7756 25.3719 30.4777 24.6699C31.1602 23.9679 32.1743 23.6168 33.5003 23.6168C34.1049 23.6168 34.6119 23.6363 35.0019 23.6558V16.0309H34.9629ZM38.0221 14.2173C39.2117 14.2173 40.1867 13.8663 40.9668 13.1253C41.7273 12.4038 42.1173 11.4872 42.1173 10.3561C42.1173 9.26409 41.7273 8.36704 40.9668 7.6455C40.1867 6.92396 39.2117 6.55344 38.0221 6.55344C37.2421 6.55344 36.5205 6.72895 35.8965 7.06047C35.2725 7.41149 34.785 7.86001 34.4339 8.44504C34.0829 9.03007 33.9269 9.65411 33.9269 10.3561C33.9269 11.4677 34.2974 12.3843 35.0775 13.1253C35.838 13.8663 36.8131 14.2173 38.0221 14.2173ZM34.4534 36H41.5713V16.4405H34.4534V36ZM48.9988 36.4095C50.2858 36.4095 51.3584 36.2925 52.1969 36.0585C53.016 35.8245 53.8545 35.454 54.7126 34.9664L52.977 29.9937C52.5089 30.2082 52.0409 30.3057 51.5339 30.3057C51.2609 30.3057 51.0269 30.2472 50.8319 30.1302C50.6368 30.0132 50.5198 29.8572 50.4418 29.6427C50.3638 29.4477 50.3053 29.2331 50.2858 29.0381C50.2468 28.8431 50.2468 28.5896 50.2468 28.3166V22.0958H54.498V16.4405H50.2468V9.5566L43.1289 10.2976V16.4405H41.0033V22.0958H43.1289V29.8572C43.1289 30.9492 43.2655 31.9243 43.5775 32.7628C43.87 33.6209 44.2795 34.3034 44.806 34.8299C45.3326 35.3565 45.9566 35.7465 46.6586 36.0195C47.3607 36.2925 48.1407 36.4095 48.9988 36.4095Z" fill="white"/>
<path d="M16.6648 19.4405V21.3516H16.6063C15.2217 19.811 13.4276 19.0309 11.2435 19.0309C10.0734 19.0309 8.96187 19.2845 7.92831 19.7915C6.89476 20.2985 6.01721 20.981 5.27617 21.8391C4.53513 22.7166 3.9306 23.7697 3.50158 25.0178C3.07256 26.2658 2.85805 27.6114 2.85805 29.035C2.85805 30.8291 3.20906 32.4672 3.9501 33.9102C4.69114 35.3533 5.7247 36.5039 7.07027 37.3424C8.39634 38.181 9.91742 38.5905 11.614 38.5905C13.7981 38.5905 15.5337 37.9079 16.7818 36.5429H16.8403V38.3175C16.8403 39.234 16.4113 39.9946 15.5922 40.5796C14.7537 41.1841 13.5836 41.4766 12.082 41.4766C11.1655 41.4766 10.1709 41.3401 9.09838 41.0281C8.02582 40.7161 7.14827 40.3456 6.44623 39.897L4.86665 45.5133C6.09522 46.1764 7.34328 46.6249 8.59135 46.8979C9.83941 47.1709 11.302 47.3074 12.9791 47.3074C14.5782 47.3074 16.0017 47.1319 17.2498 46.7809C18.4979 46.4299 19.5314 45.9229 20.3505 45.2793C21.1695 44.6553 21.8325 43.8558 22.3591 42.9197C22.8661 41.9837 23.2366 40.9501 23.4706 39.858C23.6851 38.766 23.8022 37.5179 23.8022 36.1528V19.4405H16.6648ZM13.5251 32.3111C12.5306 32.3111 11.7115 31.9991 11.0485 31.3556C10.3854 30.7121 10.0539 29.8735 10.0539 28.84C10.0539 27.8259 10.3854 27.0069 11.0485 26.3438C11.7115 25.6808 12.5501 25.3493 13.5251 25.3493C14.5002 25.3493 15.3192 25.6808 15.9822 26.3438C16.6453 27.0069 16.9768 27.8259 16.9768 28.84C16.9768 29.8735 16.6453 30.7121 15.9822 31.3556C15.3192 31.9991 14.5002 32.3111 13.5251 32.3111ZM36.9629 19.0309C35.8903 19.0309 34.8763 19.304 33.9402 19.8305C33.0042 20.357 32.1852 21.1176 31.5026 22.1121H31.4441V19.4405H24.3067V39H31.4441V30.4585C31.4441 29.2885 31.7756 28.3719 32.4777 27.6699C33.1602 26.9679 34.1743 26.6168 35.5003 26.6168C36.1049 26.6168 36.6119 26.6363 37.0019 26.6558V19.0309H36.9629ZM40.0221 17.2173C41.2117 17.2173 42.1867 16.8663 42.9668 16.1253C43.7273 15.4038 44.1173 14.4872 44.1173 13.3561C44.1173 12.2641 43.7273 11.367 42.9668 10.6455C42.1867 9.92396 41.2117 9.55344 40.0221 9.55344C39.2421 9.55344 38.5205 9.72895 37.8965 10.0605C37.2725 10.4115 36.785 10.86 36.4339 11.445C36.0829 12.0301 35.9269 12.6541 35.9269 13.3561C35.9269 14.4677 36.2974 15.3843 37.0775 16.1253C37.838 16.8663 38.8131 17.2173 40.0221 17.2173ZM36.4534 39H43.5713V19.4405H36.4534V39ZM50.9988 39.4095C52.2858 39.4095 53.3584 39.2925 54.1969 39.0585C55.016 38.8245 55.8545 38.454 56.7126 37.9664L54.977 32.9937C54.5089 33.2082 54.0409 33.3057 53.5339 33.3057C53.2609 33.3057 53.0269 33.2472 52.8319 33.1302C52.6368 33.0132 52.5198 32.8572 52.4418 32.6427C52.3638 32.4477 52.3053 32.2331 52.2858 32.0381C52.2468 31.8431 52.2468 31.5896 52.2468 31.3166V25.0958H56.498V19.4405H52.2468V12.5566L45.1289 13.2976V19.4405H43.0033V25.0958H45.1289V32.8572C45.1289 33.9492 45.2655 34.9243 45.5775 35.7628C45.87 36.6209 46.2795 37.3034 46.806 37.8299C47.3326 38.3565 47.9566 38.7465 48.6586 39.0195C49.3607 39.2925 50.1407 39.4095 50.9988 39.4095Z" fill="black" fill-opacity="0.01"/>
<path d="M16.6648 19.4405V19.1905H16.4148V19.4405H16.6648ZM16.6648 21.3516V21.6016H16.9148V21.3516H16.6648ZM16.6063 21.3516L16.4203 21.5187L16.4948 21.6016H16.6063V21.3516ZM5.27617 21.8391L5.08696 21.6757L5.08517 21.6778L5.27617 21.8391ZM7.07027 37.3424L7.20389 37.1311L7.20249 37.1302L7.07027 37.3424ZM16.7818 36.5429V36.2929H16.6716L16.5973 36.3742L16.7818 36.5429ZM16.8403 36.5429H17.0903V36.2929H16.8403V36.5429ZM15.5922 40.5796L15.4469 40.3761L15.446 40.3768L15.5922 40.5796ZM6.44623 39.897L6.58083 39.6864L6.29682 39.5049L6.20557 39.8294L6.44623 39.897ZM4.86665 45.5133L4.62599 45.4457L4.57181 45.6383L4.74792 45.7333L4.86665 45.5133ZM20.3505 45.2793L20.1989 45.0805L20.196 45.0828L20.3505 45.2793ZM22.3591 42.9197L22.577 43.0423L22.5789 43.0388L22.3591 42.9197ZM23.4706 39.858L23.7151 39.9104L23.7159 39.9062L23.4706 39.858ZM23.8022 19.4405H24.0522V19.1905H23.8022V19.4405ZM16.4148 19.4405V21.3516H16.9148V19.4405H16.4148ZM16.6648 21.1016H16.6063V21.6016H16.6648V21.1016ZM16.7922 21.1845C15.3577 19.5883 13.4947 18.7809 11.2435 18.7809V19.2809C13.3606 19.2809 15.0857 20.0337 16.4203 21.5187L16.7922 21.1845ZM11.2435 18.7809C10.0362 18.7809 8.8869 19.0428 7.81821 19.567L8.03842 20.0159C9.03684 19.5261 10.1106 19.2809 11.2435 19.2809V18.7809ZM7.81821 19.567C6.75411 20.089 5.84975 20.7925 5.08697 21.6757L5.46538 22.0025C6.18467 21.1696 7.03541 20.508 8.03842 20.0159L7.81821 19.567ZM5.08517 21.6778C4.3233 22.58 3.70379 23.6605 3.26516 24.9365L3.738 25.099C4.15741 23.8789 4.74697 22.8533 5.46718 22.0004L5.08517 21.6778ZM3.26516 24.9365C2.8264 26.2129 2.60805 27.5861 2.60805 29.035H3.10805C3.10805 27.6367 3.31871 26.3188 3.738 25.099L3.26516 24.9365ZM2.60805 29.035C2.60805 30.862 2.96564 32.5404 3.72771 34.0244L4.17249 33.796C3.45248 32.3939 3.10805 30.7962 3.10805 29.035H2.60805ZM3.72771 34.0244C4.48818 35.5053 5.55191 36.6908 6.93804 37.5546L7.20249 37.1302C5.89749 36.317 4.89411 35.2013 4.17249 33.796L3.72771 34.0244ZM6.93665 37.5537C8.30703 38.4203 9.87551 38.8405 11.614 38.8405V38.3405C9.95933 38.3405 8.48565 37.9416 7.20388 37.1311L6.93665 37.5537ZM11.614 38.8405C13.8537 38.8405 15.6618 38.1383 16.9663 36.7116L16.5973 36.3742C15.4056 37.6776 13.7426 38.3405 11.614 38.3405V38.8405ZM16.7818 36.7929H16.8403V36.2929H16.7818V36.7929ZM16.5903 36.5429V38.3175H17.0903V36.5429H16.5903ZM16.5903 38.3175C16.5903 39.1419 16.2101 39.831 15.4469 40.3761L15.7375 40.783C16.6124 40.1581 17.0903 39.3261 17.0903 38.3175H16.5903ZM15.446 40.3768C14.6663 40.9389 13.5555 41.2266 12.082 41.2266V41.7266C13.6117 41.7266 14.8411 41.4293 15.7384 40.7824L15.446 40.3768ZM12.082 41.2266C11.1906 41.2266 10.2195 41.0939 9.16821 40.7881L9.02854 41.2682C10.1223 41.5863 11.1404 41.7266 12.082 41.7266V41.2266ZM9.16821 40.7881C8.11028 40.4803 7.25665 40.1181 6.58083 39.6864L6.31164 40.1077C7.0399 40.573 7.94136 40.9519 9.02854 41.2682L9.16821 40.7881ZM6.20557 39.8294L4.62599 45.4457L5.10731 45.581L6.6869 39.9647L6.20557 39.8294ZM4.74792 45.7333C5.99759 46.4078 7.26771 46.8643 8.53792 47.1421L8.64477 46.6537C7.41885 46.3855 6.19284 45.945 4.98538 45.2933L4.74792 45.7333ZM8.53792 47.1421C9.808 47.42 11.2893 47.5574 12.9791 47.5574V47.0574C11.3147 47.0574 9.87083 46.9219 8.64477 46.6537L8.53792 47.1421ZM12.9791 47.5574C14.5959 47.5574 16.043 47.38 17.3175 47.0216L17.1821 46.5402C15.9605 46.8838 14.5604 47.0574 12.9791 47.0574V47.5574ZM17.3175 47.0216C18.591 46.6634 19.6556 46.1433 20.5049 45.4759L20.196 45.0828C19.4073 45.7025 18.4047 46.1964 17.1821 46.5402L17.3175 47.0216ZM20.502 45.4782C21.3518 44.8307 22.0362 44.0037 22.577 43.0423L22.1412 42.7971C21.6289 43.7078 20.9872 44.4799 20.199 45.0805L20.502 45.4782ZM22.5789 43.0388C23.0983 42.0799 23.4766 41.0236 23.7151 39.9104L23.2262 39.8057C22.9967 40.8766 22.6339 41.8874 22.1393 42.8006L22.5789 43.0388ZM23.7159 39.9062C23.934 38.7962 24.0522 37.5318 24.0522 36.1529H23.5522C23.5522 37.5041 23.4363 38.7358 23.2253 39.8099L23.7159 39.9062ZM24.0522 36.1529V19.4405H23.5522V36.1529H24.0522ZM23.8022 19.1905H16.6648V19.6905H23.8022V19.1905ZM13.5251 32.0611C12.5889 32.0611 11.8344 31.77 11.2226 31.1762L10.8744 31.535C11.5886 32.2282 12.4722 32.5611 13.5251 32.5611V32.0611ZM11.2226 31.1762C10.614 30.5855 10.3039 29.8147 10.3039 28.84H9.80393C9.80393 29.9323 10.1568 30.8386 10.8744 31.535L11.2226 31.1762ZM10.3039 28.84C10.3039 27.8878 10.6122 27.1337 11.2253 26.5206L10.8717 26.1671C10.1587 26.88 9.80393 27.7641 9.80393 28.84H10.3039ZM11.2253 26.5206C11.8383 25.9075 12.6119 25.5993 13.5251 25.5993V25.0993C12.4882 25.0993 11.5847 25.4541 10.8717 26.1671L11.2253 26.5206ZM13.5251 25.5993C14.4368 25.5993 15.1914 25.9065 15.8055 26.5206L16.159 26.1671C15.4471 25.4551 14.5635 25.0993 13.5251 25.0993V25.5993ZM15.8055 26.5206C16.4185 27.1337 16.7268 27.8878 16.7268 28.84H17.2268C17.2268 27.7641 16.872 26.88 16.159 26.1671L15.8055 26.5206ZM16.7268 28.84C16.7268 29.8147 16.4167 30.5855 15.8081 31.1762L16.1564 31.535C16.8739 30.8386 17.2268 29.9323 17.2268 28.84H16.7268ZM15.8081 31.1762C15.1958 31.7705 14.441 32.0611 13.5251 32.0611V32.5611C14.5593 32.5611 15.4426 32.2278 16.1564 31.535L15.8081 31.1762ZM31.5026 22.1121V22.3621H31.6343L31.7087 22.2536L31.5026 22.1121ZM31.4441 22.1121H31.1941V22.3621H31.4441V22.1121ZM31.4441 19.4405H31.6941V19.1905H31.4441V19.4405ZM24.3067 19.4405V19.1905H24.0567V19.4405H24.3067ZM24.3067 39H24.0567V39.25H24.3067V39ZM31.4441 39V39.25H31.6941V39H31.4441ZM32.4777 27.6699L32.6545 27.8467L32.6569 27.8442L32.4777 27.6699ZM37.0019 26.6558L36.9894 26.9055L37.2519 26.9187V26.6558H37.0019ZM37.0019 19.0309H37.2519V18.7809H37.0019V19.0309ZM36.9629 18.7809C35.8462 18.7809 34.7901 19.0656 33.8177 19.6126L34.0628 20.0484C34.9625 19.5423 35.9345 19.2809 36.9629 19.2809V18.7809ZM33.8177 19.6126C32.8452 20.1596 31.9986 20.9476 31.2965 21.9706L31.7087 22.2536C32.3717 21.2875 33.1632 20.5544 34.0628 20.0484L33.8177 19.6126ZM31.5026 21.8621H31.4441V22.3621H31.5026V21.8621ZM31.6941 22.1121V19.4405H31.1941V22.1121H31.6941ZM31.4441 19.1905H24.3067V19.6905H31.4441V19.1905ZM24.0567 19.4405V39H24.5567V19.4405H24.0567ZM24.3067 39.25H31.4441V38.75H24.3067V39.25ZM31.6941 39V30.4585H31.1941V39H31.6941ZM31.6941 30.4585C31.6941 29.3398 32.0089 28.4922 32.6544 27.8467L32.3009 27.4931C31.5423 28.2517 31.1941 29.2372 31.1941 30.4585H31.6941ZM32.6569 27.8442C33.2773 27.2061 34.2165 26.8668 35.5003 26.8668V26.3668C34.132 26.3668 33.0431 26.7296 32.2984 27.4956L32.6569 27.8442ZM35.5003 26.8668C36.0994 26.8668 36.6021 26.8862 36.9894 26.9055L37.0144 26.4062C36.6217 26.3865 36.1103 26.3668 35.5003 26.3668V26.8668ZM37.2519 26.6558V19.0309H36.7519V26.6558H37.2519ZM37.0019 18.7809H36.9629V19.2809H37.0019V18.7809ZM42.9668 16.1253L42.7947 15.9439L42.7946 15.944L42.9668 16.1253ZM42.9668 10.6455L43.1389 10.4641L43.1365 10.462L42.9668 10.6455ZM37.8965 10.0605L37.7792 9.83963L37.7739 9.84258L37.8965 10.0605ZM37.0775 16.1253L37.2519 15.9462L37.2497 15.944L37.0775 16.1253ZM36.4534 39H36.2034V39.25H36.4534V39ZM43.5713 39V39.25H43.8213V39H43.5713ZM43.5713 19.4405H43.8213V19.1905H43.5713V19.4405ZM36.4534 19.4405V19.1905H36.2034V19.4405H36.4534ZM40.0221 17.4673C41.2657 17.4673 42.3056 17.0982 43.139 16.3065L42.7946 15.944C42.0678 16.6345 41.1577 16.9673 40.0221 16.9673V17.4673ZM43.1388 16.3067C43.9517 15.5355 44.3673 14.5521 44.3673 13.3561H43.8673C43.8673 14.4223 43.5029 15.272 42.7947 15.9439L43.1388 16.3067ZM44.3673 13.3561C44.3673 12.1963 43.9497 11.2334 43.1388 10.4641L42.7947 10.8269C43.5049 11.5006 43.8673 12.3318 43.8673 13.3561H44.3673ZM43.1365 10.462C42.3062 9.69387 41.2687 9.30344 40.0221 9.30344V9.80344C41.1546 9.80344 42.0673 10.1541 42.797 10.829L43.1365 10.462ZM40.0221 9.30344C39.2043 9.30344 38.442 9.48758 37.7792 9.83969L38.0138 10.2812C38.5991 9.97033 39.2799 9.80344 40.0221 9.80344V9.30344ZM37.7739 9.84258C37.1173 10.2119 36.5958 10.6893 36.2196 11.3164L36.6483 11.5737C36.9741 11.0307 37.4276 10.6111 38.0191 10.2784L37.7739 9.84258ZM36.2196 11.3164C35.8427 11.9445 35.6769 12.6139 35.6769 13.3561H36.1769C36.1769 12.6943 36.3231 12.1157 36.6483 11.5737L36.2196 11.3164ZM35.6769 13.3561C35.6769 14.531 36.0719 15.5148 36.9053 16.3065L37.2497 15.944C36.5229 15.2537 36.1769 14.4044 36.1769 13.3561H35.6769ZM36.903 16.3043C37.7185 17.0989 38.7604 17.4673 40.0221 17.4673V16.9673C38.8657 16.9673 37.9575 16.6337 37.2519 15.9462L36.903 16.3043ZM36.4534 39.25H43.5713V38.75H36.4534V39.25ZM43.8213 39V19.4405H43.3213V39H43.8213ZM43.5713 19.1905H36.4534V19.6905H43.5713V19.1905ZM36.2034 19.4405V39H36.7034V19.4405H36.2034ZM54.1969 39.0585L54.2641 39.2993L54.2656 39.2989L54.1969 39.0585ZM56.7126 37.9664L56.8361 38.1838L57.0173 38.0808L56.9486 37.8841L56.7126 37.9664ZM54.977 32.9937L55.213 32.9113L55.1225 32.652L54.8728 32.7664L54.977 32.9937ZM52.4418 32.6427L52.6769 32.5572L52.674 32.5498L52.4418 32.6427ZM52.2858 32.0381L52.5346 32.0133L52.5334 32.0011L52.531 31.9891L52.2858 32.0381ZM52.2468 25.0958V24.8458H51.9968V25.0958H52.2468ZM56.498 25.0958V25.3458H56.748V25.0958H56.498ZM56.498 19.4405H56.748V19.1905H56.498V19.4405ZM52.2468 19.4405H51.9968V19.6905H52.2468V19.4405ZM52.2468 12.5566H52.4968V12.2792L52.2209 12.3079L52.2468 12.5566ZM45.1289 13.2976L45.1031 13.049L44.8789 13.0723V13.2976H45.1289ZM45.1289 19.4405V19.6905H45.3789V19.4405H45.1289ZM43.0033 19.4405V19.1905H42.7533V19.4405H43.0033ZM43.0033 25.0958H42.7533V25.3458H43.0033V25.0958ZM45.1289 25.0958H45.3789V24.8458H45.1289V25.0958ZM45.5775 35.7628L45.8142 35.6821L45.8118 35.6756L45.5775 35.7628ZM50.9988 39.6595C52.2986 39.6595 53.3958 39.5416 54.2641 39.2993L54.1297 38.8177C53.3209 39.0434 52.2731 39.1595 50.9988 39.1595V39.6595ZM54.2656 39.2989C55.1079 39.0582 55.9649 38.6788 56.8361 38.1838L56.5891 37.7491C55.7441 38.2292 54.924 38.5908 54.1282 38.8181L54.2656 39.2989ZM56.9486 37.8841L55.213 32.9113L54.7409 33.0761L56.4765 38.0488L56.9486 37.8841ZM54.8728 32.7664C54.4386 32.9654 54.0063 33.0557 53.5339 33.0557V33.5557C54.0756 33.5557 54.5793 33.451 55.0811 33.2209L54.8728 32.7664ZM53.5339 33.0557C53.2971 33.0557 53.1095 33.0052 52.9605 32.9158L52.7032 33.3446C52.9442 33.4892 53.2247 33.5557 53.5339 33.5557V33.0557ZM52.9605 32.9158C52.8212 32.8322 52.738 32.7255 52.6768 32.5572L52.2069 32.7281C52.3017 32.9889 52.4525 33.1941 52.7032 33.3446L52.9605 32.9158ZM52.674 32.5498C52.6025 32.3713 52.5512 32.1799 52.5346 32.0133L52.0371 32.063C52.0594 32.2864 52.1251 32.524 52.2097 32.7355L52.674 32.5498ZM52.531 31.9891C52.4979 31.8238 52.4968 31.5986 52.4968 31.3166H51.9968C51.9968 31.5806 51.9957 31.8624 52.0407 32.0872L52.531 31.9891ZM52.4968 31.3166V25.0958H51.9968V31.3166H52.4968ZM52.2468 25.3458H56.498V24.8458H52.2468V25.3458ZM56.748 25.0958V19.4405H56.248V25.0958H56.748ZM56.498 19.1905H52.2468V19.6905H56.498V19.1905ZM52.4968 19.4405V12.5566H51.9968V19.4405H52.4968ZM52.2209 12.3079L45.1031 13.049L45.1548 13.5463L52.2727 12.8053L52.2209 12.3079ZM44.8789 13.2976V19.4405H45.3789V13.2976H44.8789ZM45.1289 19.1905H43.0033V19.6905H45.1289V19.1905ZM42.7533 19.4405V25.0958H43.2533V19.4405H42.7533ZM43.0033 25.3458H45.1289V24.8458H43.0033V25.3458ZM44.8789 25.0958V32.8572H45.3789V25.0958H44.8789ZM44.8789 32.8572C44.8789 33.9686 45.0177 34.9752 45.3432 35.85L45.8118 35.6756C45.5132 34.8733 45.3789 33.9299 45.3789 32.8572H44.8789ZM45.3408 35.8435C45.6434 36.7311 46.0711 37.4486 46.6293 38.0067L46.9828 37.6532C46.4879 37.1582 46.0965 36.5107 45.8141 35.6822L45.3408 35.8435ZM46.6293 38.0067C47.1827 38.5602 47.8371 38.9682 48.568 39.2525L48.7492 38.7865C48.0761 38.5247 47.4824 38.1527 46.9828 37.6532L46.6293 38.0067ZM48.568 39.2525C49.3061 39.5396 50.1185 39.6595 50.9988 39.6595V39.1595C50.1629 39.1595 49.4152 39.0455 48.7492 38.7865L48.568 39.2525Z" fill="white"/>
</svg>
